<?xml version="1.0" standalone="no"?><!DOCTYPE svg PUBLIC "-//W3C//DTD SVG 1.1//EN" "http://www.w3.org/Graphics/SVG/1.1/DTD/svg11.dtd"><svg t="1515122426839" class="icon" style="" viewBox="0 0 1024 1024" version="1.1" xmlns="http://www.w3.org/2000/svg" p-id="2826" xmlns:xlink="http://www.w3.org/1999/xlink" width="200" height="200"><defs><style type="text/css"></style></defs><path d="M511.974 15.759C229.233 15.759 0.007 243.57 0.007 524.59c0 224.8 146.666 415.512 350.136 482.754 25.628 4.711 34.95-10.96 34.95-24.484 0-12.057-0.45-44.031-0.67-86.54-142.426 30.776-172.48-68.219-172.48-68.219-23.285-58.771-56.852-74.403-56.852-74.403-46.487-31.547 3.531-30.931 3.531-30.931 51.379 3.613 78.423 52.414 78.423 52.414 45.66 77.76 119.846 55.257 149.005 42.312 4.632-32.941 17.891-55.315 32.5-68.063-113.673-12.834-233.188-56.485-233.188-251.45 0-55.567 19.938-100.992 52.684-136.569-5.239-12.81-22.843-64.543 5.026-134.628 0 0 42.982-13.667 140.811 52.2 40.816-11.334 84.622-16.997 128.166-17.17 43.483 0.187 87.302 5.836 128.173 17.17 97.76-65.867 140.68-52.2 140.68-52.2 27.938 70.085 10.34 121.819 5.096 134.628 32.813 35.576 52.613 81.002 52.613 136.569 0 195.419-119.688 238.473-233.746 251.021 18.354 15.723 34.736 46.839 34.736 94.317 0 67.98-0.613 122.837-0.613 139.531 0 13.627 9.203 29.479 35.195 24.435 203.246-67.386 349.811-257.956 349.811-482.692C1023.994 243.57 794.762 15.759 511.974 15.759z" p-id="2827"></path></svg>