<?xml version="1.0" standalone="no"?><!DOCTYPE svg PUBLIC "-//W3C//DTD SVG 1.1//EN" "http://www.w3.org/Graphics/SVG/1.1/DTD/svg11.dtd"><svg t="1515123111934" class="icon" style="" viewBox="0 0 1024 1024" version="1.1" xmlns="http://www.w3.org/2000/svg" p-id="3545" xmlns:xlink="http://www.w3.org/1999/xlink" width="200" height="200"><defs><style type="text/css"></style></defs><path d="M324.843243 82.911712l88.908108 58.118919c4.497297 4.612613 3.459459 9.10991-3.459459 13.722522-11.416216 4.612613-23.87027 13.722523-37.592793 27.32973l-13.722522 17.066667 116.237837-6.803604 44.396397-47.855856 61.463063 51.315315 3.459459 6.803604c-2.306306 2.306306-4.612613 3.459459-6.803603 3.459459l-150.371171 6.803604c29.636036 18.21982 44.396396 37.592793 44.396396 58.118919-2.306306 18.21982-12.569369 29.636036-30.789189 34.133333-18.21982 2.306306-27.32973-2.190991-27.32973-13.722522-2.306306-38.745946-7.956757-63.769369-17.066667-75.185586l-58.118919 3.45946c-54.659459 50.162162-112.778378 101.362162-174.356756 153.83063-4.612613 4.612613-6.803604 2.306306-6.803604-6.803603 77.491892-98.018018 133.41982-192.576577 167.553153-283.790991z m10.263063 382.846847l-6.803603 338.335135c-2.306306 31.827027-19.372973 64.922523-51.315316 99.171171-9.10991 6.803604-14.875676 6.803604-17.066666 0l6.803603-249.542342V516.958559l-3.459459-123.041442 78.645045 30.789189c2.190991 0 4.497297 1.153153 6.803604 3.45946l-3.45946 6.803603-10.147748 30.78919z m30.789189-164.093694c66.075676 20.526126 99.171171 38.745946 99.171172 54.659459-4.612613 27.32973-14.875676 45.54955-30.78919 54.65946-11.416216 6.803604-20.526126 3.459459-27.329729-10.263063-18.21982-50.046847-34.133333-80.836036-47.855856-92.252253-2.306306-6.803604 0-8.994595 6.803603-6.803603z m102.515316 406.717117c-6.803604 20.526126-19.372973 37.592793-37.592793 51.315315-9.10991 6.803604-14.875676 4.612613-17.066667-6.803603V527.221622v-68.381982c-2.306306-6.803604 0-7.956757 6.803604-3.45946l47.855856 30.789189 157.174775-6.803603 27.329729-37.592793 68.381982 37.592793c2.190991 0 3.459459 2.306306 3.45946 6.803603l-20.526126 30.78919 3.459459 146.911711c-2.306306 22.832432-15.913514 50.162162-41.052252 81.989189-11.416216 9.10991-20.526126 9.10991-27.32973 0-2.306306-6.803604-6.803604-14.76036-13.722522-23.87027-4.612613-9.10991-7.956757-15.913514-10.263063-20.526126l-146.911712 6.918919zM629.045045 496.547748l-164.093694 3.459459v85.448649l140.108108-6.803604c4.497297 0 6.803604 2.306306 6.803604 6.803604 0 4.612613-3.459459 6.803604-10.263063 6.803603l-136.763964 6.803604 3.459459 95.711712 160.634235-6.803604v-191.423423h0.115315z m13.722523-109.434234c-43.358559 0-78.645045 3.459459-105.974775 10.263063l-23.87027-23.870271L779.416216 359.783784l34.133334-37.592793 71.726126 44.396396c0 2.306306 1.153153 3.459459 3.459459 3.45946 2.190991 2.306306 1.153153 4.612613-3.459459 6.803603l-27.32973 34.133334 3.459459 194.767567 3.45946 136.763964c4.497297 63.769369-29.636036 119.581982-102.515315 167.437838-4.612613 2.190991-7.956757 2.190991-10.263064 0-2.306306-2.306306-2.306306-5.765766 0-10.263063-2.306306-31.942342-13.722523-55.812613-34.133333-71.726126-2.306306-2.306306-3.459459-4.612613-3.459459-6.803604 0-2.306306 1.153153-3.459459 3.459459-3.459459 47.855856 2.190991 69.41982-9.10991 64.922523-34.133333l-3.45946-403.257658-136.648648 6.803604z m0-311.005406l85.448648 51.315315c4.497297 2.306306 3.459459 5.765766-3.459459 10.263063-13.722523 4.612613-25.138739 13.722523-34.133334 27.32973-2.306306 2.306306-4.612613 5.765766-6.803603 10.263063-4.612613 6.803604-9.10991 12.569369-13.722523 17.066667l146.911712-6.803604 44.396396-47.855856 61.463063 51.315316c4.497297 4.612613 4.497297 6.803604 0 6.803603l-187.963963 10.263063c45.54955 25.138739 68.381982 47.855856 68.381981 68.381982-4.612613 20.526126-18.21982 36.43964-41.052252 47.855856-18.21982 2.306306-27.32973-3.459459-27.329729-17.066666-2.306306-47.855856-10.263063-80.836036-23.870271-99.171172l-54.659459 3.45946c-6.803604 6.803604-17.066667 18.21982-30.789189 34.133333-27.32973 34.133333-51.315315 61.463063-71.726127 81.989189-4.612613 2.306306-7.956757 3.459459-10.263063 3.45946s-2.306306-2.190991 0-6.803604c45.54955-95.827027 78.645045-177.816216 99.171172-246.198198z" fill="#F09589" p-id="3546"></path></svg>