<?xml version="1.0" standalone="no"?><!DOCTYPE svg PUBLIC "-//W3C//DTD SVG 1.1//EN" "http://www.w3.org/Graphics/SVG/1.1/DTD/svg11.dtd"><svg t="1515934957250" class="icon" style="" viewBox="0 0 1024 1024" version="1.1" xmlns="http://www.w3.org/2000/svg" p-id="1350" xmlns:xlink="http://www.w3.org/1999/xlink" width="200" height="200"><defs><style type="text/css"></style></defs><path d="M386.92 498.112c7.446-1.34 15.178-2.082 23.172-2.082L403.848 496l207.646 0c9.006 0 17.612-1.234 25.816-3.508 38.74-10.726 66.69-45.074 66.69-87.326l0-61.644 0-112.804c0-49.664-42.3-86.968-92.578-95.212-31.862-5.248-78.516-7.654-110.178-7.498-31.658 0.172-61.962 2.808-88.554 7.498C334.286 149.152 320 177.856 320 230.718L320 288l192 0 0 32L257.64 320c-71.256 0-129.076 85.142-129.626 190.484C128.01 510.99 128 511.494 128 512c0 19.046 1.88 37.44 5.37 54.808C149.296 646.14 198.902 704 257.64 704L288 704l0-5.324 0-86.546C288 558.476 328.292 508.664 386.92 498.112zM407.312 254.004c-19.184 0-34.768-15.57-34.768-34.806 0-19.328 15.548-35.04 34.768-35.04 19.148 0 34.798 15.71 34.798 35.04C442.112 238.434 426.492 254.004 407.312 254.004z" p-id="1351"></path><path d="M887.902 445.086C869.56 372.042 822.066 320 766.36 320L736 320l0 5.252 0 76.092c0 67.83-44.572 116.948-98.978 125.362-5.474 0.848-10.966 1.292-16.602 1.292L412.702 527.998c-9.036 0-17.808 1.168-26.098 3.344C348.36 541.378 320 573.2 320 614.472l0 65.844 0 108.61c0 49.664 49.954 78.852 98.962 93.102 58.654 17.062 122.534 20.136 192.732 0C658.3 868.708 704 841.786 704 788.926L704 736l-192 0 0-32 254.36 0c50.48 0 94.214-42.73 115.628-105.098C890.948 572.808 896 543.282 896 512 896 488.464 893.134 465.924 887.902 445.086zM615.734 765.64c19.18 0 34.762 15.57 34.762 34.8 0 19.3-15.582 35.042-34.762 35.042-19.154 0-34.798-15.742-34.798-35.042C580.936 781.18 596.548 765.64 615.734 765.64z" p-id="1352"></path></svg>