<?xml version="1.0" standalone="no"?><!DOCTYPE svg PUBLIC "-//W3C//DTD SVG 1.1//EN" "http://www.w3.org/Graphics/SVG/1.1/DTD/svg11.dtd"><svg t="1515934654577" class="icon" style="" viewBox="0 0 1024 1024" version="1.1" xmlns="http://www.w3.org/2000/svg" p-id="4849" xmlns:xlink="http://www.w3.org/1999/xlink" width="200" height="200"><defs><style type="text/css"></style></defs><path d="M798.5534375 456.9378125c-42.917812500000004 49.081875-150.6984375 83.99249999999999-277.3734375 83.99249999999999-3.11625 0-6.06375-0.1340625-9.18-0.2015625-3.1153125 0.06749999999999999-6.097499999999999 0.2015625-9.2128125 0.2015625-126.710625 0-234.42374999999998-34.910624999999996-277.3078125-83.9596875-0.60375 0.635625-1.205625 1.273125-1.775625 1.8759374999999998v89.956875c41.745 50.053125 150.7303125 85.86937499999999 279.1153125 85.86937499999999 3.0834375 0 6.065625-0.16874999999999998 9.2475-0.200625 3.0496875 0.031875 6.03 0.200625 9.1134375 0.200625 128.3840625 0 237.4040625-35.816250000000004 279.1171875-85.86937499999999v-89.956875c-0.504375-0.635625-1.2075-1.2393750000000001-1.7437500000000001-1.90875zM521.1800000000001 195.2103125c-3.0834375 0-6.06375 0.166875-9.1134375 0.200625-3.1828125-0.033749999999999995-6.1640625-0.200625-9.2475-0.200625-128.385 0-237.37031249999998 35.814375-279.1153125 85.90218750000001v89.9221875c0.57 0.6703125 1.205625 1.2740624999999999 1.775625 1.9096875 42.951562499999994 49.049062500000005 150.6646875 83.9934375 277.340625 83.9934375 3.0834375 0 6.065625-0.166875 9.2475-0.234375 3.0496875 0.06749999999999999 6.03 0.234375 9.1134375 0.234375 126.7425 0 234.455625-34.944375 277.3734375-84.02718750000001 0.57-0.635625 1.2393750000000001-1.2393750000000001 1.7428124999999999-1.8759374999999998V281.1125c-41.713125-50.0878125-150.733125-85.90218750000001-279.1171875-85.90218750000001zM798.5534375 634.6737499999999c-42.917812500000004 49.081875-150.6984375 83.99249999999999-277.3734375 83.99249999999999-3.11625 0-6.06375-0.1340625-9.18-0.2015625-3.1153125 0.06749999999999999-6.097499999999999 0.2015625-9.2128125 0.2015625-126.710625 0-234.42374999999998-34.909687500000004-277.3078125-83.95875-0.60375 0.635625-1.205625 1.2384374999999999-1.775625 1.8759374999999998v89.9221875c41.745 50.0878125 150.7303125 85.90312499999999 279.1153125 85.90312499999999 3.0834375 0 6.065625-0.2015625 9.2475-0.234375 3.0496875 0.0328125 6.03 0.234375 9.1134375 0.234375 128.3840625 0 237.4040625-35.815312500000005 279.1171875-85.90312499999999v-89.9221875c-0.504375-0.6375000000000001-1.2075-1.2750000000000001-1.7437500000000001-1.9096875z" p-id="4850"></path></svg>