<?xml version="1.0" standalone="no"?><!DOCTYPE svg PUBLIC "-//W3C//DTD SVG 1.1//EN" "http://www.w3.org/Graphics/SVG/1.1/DTD/svg11.dtd"><svg t="1514779529089" class="icon" style="" viewBox="0 0 1024 1024" version="1.1" xmlns="http://www.w3.org/2000/svg" p-id="3908" xmlns:xlink="http://www.w3.org/1999/xlink" width="200" height="200"><defs><style type="text/css"></style></defs><path d="M549.449143 569.380571H334.262857c-3.072 48.384-12.251429 95.744-27.465143 145.517715l50.358857-41.435429c30.464 31.195429 102.619429 117.869714 129.097143 149.650286 31.963429 46.665143 3.693714 144.749714 3.693715 144.749714s-22.893714-26.477714-41.216-51.456c-39.716571-52.918857-88.576-113.737143-146.541715-182.345143-43.958857 172.324571-124.16 246.564571-124.16 246.564572-32 32.804571-153.636571 58.258286-178.029714 33.353143 149.540571-118.345143 231.936-264.923429 247.222857-444.598858H18.285714s13.348571-82.944 54.345143-82.944h182.491429c1.718857-24.137143 3.401143-51.529143 3.401143-110.811428 2.998857-62.281143 2.450286-113.737143 2.450285-151.771429H160.256c-9.142857 27.648-10.569143 31.268571-17.92 52.187429C102.290286 351.012571 34.304 353.28 13.750857 355.584c61.037714-124.635429 95.305143-246.674286 107.154286-278.418286C149.467429 0.256 233.508571 0 233.508571 0a1756.672 1756.672 0 0 0-45.824 144.384h308.918858c36.790857 0 29.952 79.469714 29.952 79.469714H348.013714c0 79.469714-1.609143 165.851429-7.68 262.582857h182.601143c26.221714 0 26.514286 82.944 26.514286 82.944z m386.56 255.158858c0 5.376-2.706286 10.898286-7.972572 10.898285h-83.382857c-2.413714 0-109.129143 68.644571-109.129143 68.644572 0-2.157714-17.737143-68.644571-17.737142-68.644572h-24.868572c-5.266286 0-10.861714-5.522286-10.861714-10.898285V223.158857c0-5.339429 5.595429-9.691429 10.825143-9.691428h235.154285c5.266286 0 7.936 4.388571 7.936 9.691428v601.380572z m70.692571-697.417143H612.644571c-8.740571 0-15.213714 8.777143-15.213714 17.664v759.771428c0 8.923429 6.473143 17.261714 15.213714 17.261715h60.781715l26.624 88.393142s99.291429-71.094857 145.371428-88.393142h161.28a18.285714 18.285714 0 0 0 17.298286-17.261715V144.786286c0-8.923429-8.557714-17.700571-17.298286-17.700572z" fill="#0F88EB" p-id="3909"></path></svg>